<mxfile host="app.diagrams.net" modified="2023-05-08T12:48:11.974Z" agent="Mozilla/5.0 (Macintosh; Intel Mac OS X 10_15_7) AppleWebKit/537.36 (KHTML, like Gecko) Chrome/112.0.0.0 Safari/537.36" etag="hpGBOdAw2h4mLoej9fCk" version="21.1.8" type="github">
  <diagram name="第 1 页" id="osMRQ07piLL25-XvtrCx">
    <mxGraphModel dx="1010" dy="650" grid="1" gridSize="10" guides="1" tooltips="1" connect="1" arrows="1" fold="1" page="1" pageScale="1" pageWidth="827" pageHeight="1169" math="0" shadow="0">
      <root>
        <mxCell id="0" />
        <mxCell id="1" parent="0" />
        <mxCell id="rxgOtmaTFAqTCLGWK3p9-1" value="&lt;font style=&quot;font-size: 18px;&quot;&gt;dense_h_to_4h&lt;br&gt;[10944, 8192]&lt;/font&gt;" style="rounded=0;whiteSpace=wrap;html=1;" vertex="1" parent="1">
          <mxGeometry x="35" y="320" width="170" height="60" as="geometry" />
        </mxCell>
        <mxCell id="rxgOtmaTFAqTCLGWK3p9-5" value="" style="rounded=0;whiteSpace=wrap;html=1;" vertex="1" parent="1">
          <mxGeometry x="60" y="250" width="120" height="20" as="geometry" />
        </mxCell>
        <mxCell id="rxgOtmaTFAqTCLGWK3p9-6" value="" style="rounded=0;whiteSpace=wrap;html=1;" vertex="1" parent="1">
          <mxGeometry x="270" y="250" width="120" height="20" as="geometry" />
        </mxCell>
        <mxCell id="rxgOtmaTFAqTCLGWK3p9-7" value="" style="rounded=0;whiteSpace=wrap;html=1;" vertex="1" parent="1">
          <mxGeometry x="480" y="250" width="120" height="20" as="geometry" />
        </mxCell>
        <mxCell id="rxgOtmaTFAqTCLGWK3p9-8" value="" style="rounded=0;whiteSpace=wrap;html=1;" vertex="1" parent="1">
          <mxGeometry x="695" y="250" width="120" height="20" as="geometry" />
        </mxCell>
        <mxCell id="rxgOtmaTFAqTCLGWK3p9-9" value="Parallel Input&lt;br style=&quot;font-size: 18px;&quot;&gt;[1, 10944]" style="text;html=1;strokeColor=none;fillColor=none;align=center;verticalAlign=middle;whiteSpace=wrap;rounded=0;fontSize=18;" vertex="1" parent="1">
          <mxGeometry x="30" y="210" width="180" height="20" as="geometry" />
        </mxCell>
        <mxCell id="rxgOtmaTFAqTCLGWK3p9-10" value="Parallel Input&lt;br style=&quot;font-size: 18px;&quot;&gt;[1, 10944]" style="text;html=1;strokeColor=none;fillColor=none;align=center;verticalAlign=middle;whiteSpace=wrap;rounded=0;fontSize=18;" vertex="1" parent="1">
          <mxGeometry x="240" y="210" width="180" height="20" as="geometry" />
        </mxCell>
        <mxCell id="rxgOtmaTFAqTCLGWK3p9-11" value="Parallel Input&lt;br style=&quot;font-size: 18px;&quot;&gt;[1, 10944]" style="text;html=1;strokeColor=none;fillColor=none;align=center;verticalAlign=middle;whiteSpace=wrap;rounded=0;fontSize=18;" vertex="1" parent="1">
          <mxGeometry x="450" y="210" width="180" height="20" as="geometry" />
        </mxCell>
        <mxCell id="rxgOtmaTFAqTCLGWK3p9-12" value="Parallel Input&lt;br style=&quot;font-size: 18px;&quot;&gt;[1, 10944]" style="text;html=1;strokeColor=none;fillColor=none;align=center;verticalAlign=middle;whiteSpace=wrap;rounded=0;fontSize=18;" vertex="1" parent="1">
          <mxGeometry x="665" y="210" width="180" height="20" as="geometry" />
        </mxCell>
        <mxCell id="rxgOtmaTFAqTCLGWK3p9-13" value="X" style="text;html=1;strokeColor=none;fillColor=none;align=center;verticalAlign=middle;whiteSpace=wrap;rounded=0;fontSize=18;" vertex="1" parent="1">
          <mxGeometry x="90" y="280" width="60" height="30" as="geometry" />
        </mxCell>
        <mxCell id="rxgOtmaTFAqTCLGWK3p9-14" value="X" style="text;html=1;strokeColor=none;fillColor=none;align=center;verticalAlign=middle;whiteSpace=wrap;rounded=0;fontSize=18;" vertex="1" parent="1">
          <mxGeometry x="300" y="280" width="60" height="30" as="geometry" />
        </mxCell>
        <mxCell id="rxgOtmaTFAqTCLGWK3p9-16" value="X" style="text;html=1;strokeColor=none;fillColor=none;align=center;verticalAlign=middle;whiteSpace=wrap;rounded=0;fontSize=18;" vertex="1" parent="1">
          <mxGeometry x="725" y="280" width="60" height="30" as="geometry" />
        </mxCell>
        <mxCell id="rxgOtmaTFAqTCLGWK3p9-17" value="&lt;font style=&quot;font-size: 18px;&quot;&gt;dense_h_to_4h&lt;br&gt;[10944, 8192]&lt;/font&gt;" style="rounded=0;whiteSpace=wrap;html=1;" vertex="1" parent="1">
          <mxGeometry x="245" y="320" width="170" height="60" as="geometry" />
        </mxCell>
        <mxCell id="rxgOtmaTFAqTCLGWK3p9-18" value="&lt;font style=&quot;font-size: 18px;&quot;&gt;dense_h_to_4h&lt;br&gt;[10944, 8192]&lt;/font&gt;" style="rounded=0;whiteSpace=wrap;html=1;" vertex="1" parent="1">
          <mxGeometry x="460" y="320" width="170" height="60" as="geometry" />
        </mxCell>
        <mxCell id="rxgOtmaTFAqTCLGWK3p9-19" value="&lt;font style=&quot;font-size: 18px;&quot;&gt;dense_h_to_4h&lt;br&gt;[10944, 8192]&lt;/font&gt;" style="rounded=0;whiteSpace=wrap;html=1;" vertex="1" parent="1">
          <mxGeometry x="670" y="320" width="170" height="60" as="geometry" />
        </mxCell>
        <mxCell id="rxgOtmaTFAqTCLGWK3p9-20" value="X" style="text;html=1;strokeColor=none;fillColor=none;align=center;verticalAlign=middle;whiteSpace=wrap;rounded=0;fontSize=18;" vertex="1" parent="1">
          <mxGeometry x="510" y="280" width="60" height="30" as="geometry" />
        </mxCell>
        <mxCell id="rxgOtmaTFAqTCLGWK3p9-22" value="" style="rounded=0;whiteSpace=wrap;html=1;" vertex="1" parent="1">
          <mxGeometry x="70" y="440" width="50" height="20" as="geometry" />
        </mxCell>
        <mxCell id="rxgOtmaTFAqTCLGWK3p9-23" value="" style="rounded=0;whiteSpace=wrap;html=1;" vertex="1" parent="1">
          <mxGeometry x="120" y="440" width="50" height="20" as="geometry" />
        </mxCell>
      </root>
    </mxGraphModel>
  </diagram>
</mxfile>
